<svg width="84" height="84" viewBox="0 0 84 84" fill="none" xmlns="http://www.w3.org/2000/svg">
<circle cx="42" cy="42" r="42" fill="#19CAC1"/>
<path d="M54.7143 16.4682C54.8624 16.3198 55.0382 16.202 55.2318 16.1217C55.4254 16.0414 55.633 16 55.8426 16C56.0522 16 56.2598 16.0414 56.4534 16.1217C56.647 16.202 56.8229 16.3198 56.9709 16.4682L66.5326 26.0298C66.8319 26.329 67 26.7349 67 27.158C67 27.5812 66.8319 27.9871 66.5326 28.2863C66.2334 28.5855 65.8276 28.7536 65.4044 28.7536C64.9812 28.7536 64.5753 28.5855 64.2761 28.2863L63.0139 27.021L57.2992 32.7356L63.3454 38.7786C63.6446 39.0778 63.8128 39.4836 63.8128 39.9068C63.8128 40.33 63.6446 40.7359 63.3454 41.0351C63.0462 41.3343 62.6403 41.5024 62.2171 41.5024C61.7939 41.5024 61.3881 41.3343 61.0888 41.0351L57.4362 37.3794L39.7151 55.1002C38.975 55.841 38.096 56.4286 37.1286 56.8295C36.1611 57.2304 35.1241 57.4366 34.0769 57.4364H27.8171L18.7239 66.5327C18.4247 66.8319 18.0188 67 17.5956 67C17.1724 67 16.7666 66.8319 16.4674 66.5327C16.1681 66.2334 16 65.8276 16 65.4044C16 64.9812 16.1681 64.5754 16.4674 64.2761L25.5638 55.183V48.9202C25.5642 46.8079 26.4034 44.7822 27.8968 43.2884L29.6817 41.5004L32.4036 44.2223C32.7028 44.5215 33.1087 44.6896 33.5319 44.6896C33.9551 44.6896 34.3609 44.5215 34.6602 44.2223C34.9594 43.923 35.1275 43.5172 35.1275 43.094C35.1275 42.6708 34.9594 42.265 34.6602 41.9657L31.9383 39.2471L34.4657 36.7196L37.1845 39.4415C37.4837 39.7407 37.8896 39.9088 38.3128 39.9088C38.7359 39.9088 39.1418 39.7407 39.441 39.4415C39.7403 39.1423 39.9084 38.7364 39.9084 38.3132C39.9084 37.89 39.7403 37.4842 39.441 37.185L36.7191 34.4663L39.2466 31.9388L41.9653 34.6607C42.2646 34.9599 42.6704 35.128 43.0936 35.128C43.5168 35.128 43.9227 34.9599 44.2219 34.6607C44.5212 34.3615 44.6893 33.9556 44.6893 33.5324C44.6893 33.1092 44.5212 32.7034 44.2219 32.4042L41.5 29.6855L45.6211 25.5644L41.9653 21.9119C41.6661 21.6127 41.498 21.2068 41.498 20.7836C41.498 20.3605 41.6661 19.9546 41.9653 19.6554C42.2646 19.3561 42.6704 19.188 43.0936 19.188C43.5168 19.188 43.9227 19.3561 44.2219 19.6554L50.2649 25.7015L55.9797 19.9868L54.7143 18.7247C54.5659 18.5767 54.4482 18.4008 54.3678 18.2072C54.2875 18.0136 54.2461 17.8061 54.2461 17.5964C54.2461 17.3868 54.2875 17.1793 54.3678 16.9857C54.4482 16.7921 54.5659 16.6162 54.7143 16.4682ZM60.7605 24.7676L58.2331 22.2402L52.5183 27.9548L55.0458 30.4823L60.7605 24.7676Z" fill="white"/>
</svg>
