<svg width="118" height="118" viewBox="0 0 118 118" fill="none" xmlns="http://www.w3.org/2000/svg">
<circle cx="59" cy="59" r="59" fill="#F5F9FC"/>
<path d="M90.0927 62.0147C89.0019 60.2745 87.4771 58.8394 85.6641 57.8465C83.8511 56.8537 81.8105 56.3363 79.7371 56.3438H41.8103C40.2149 56.3452 38.6446 55.951 37.2437 55.1975C35.8427 54.444 34.656 53.3553 33.7924 52.0313C32.9236 50.7188 32.4268 49.2006 32.3538 47.6345C32.2808 46.0684 32.6342 44.5116 33.3773 43.1259L41.286 28.0322L44.3883 31.5469L38.4022 42.975L57.7151 30.7706C58.1584 30.4847 58.6986 30.3843 59.2169 30.4914C59.7352 30.5986 60.1891 30.9046 60.4788 31.342C60.7685 31.7795 60.8703 32.3127 60.7617 32.8242C60.6531 33.3357 60.3431 33.7838 59.8998 34.0697L36.9602 48.5381C37.0831 48.9335 37.2595 49.3106 37.4846 49.6594C37.8892 50.257 38.4217 50.7598 39.0445 51.1324C39.6673 51.5049 40.3653 51.7382 41.0894 51.8156L59.3974 40.1719C59.8377 39.901 60.3678 39.8108 60.8746 39.9204C61.3814 40.0301 61.8246 40.3309 62.1098 40.7587C62.3949 41.1865 62.4994 41.7073 62.4008 42.21C62.3022 42.7127 62.0084 43.1575 61.5821 43.4494L48.2334 51.9019H65.2743L70.5394 41.5088C71.4793 39.668 71.926 37.6204 71.8371 35.561C71.7482 33.5016 71.1266 31.4989 70.0315 29.7437C68.9365 27.9885 67.4044 26.5392 65.5812 25.5338C63.758 24.5284 61.7043 24.0004 59.6158 24H39.4945C39.0851 23.9992 38.6836 24.112 38.336 24.3255C37.9883 24.539 37.7084 24.8446 37.5283 25.2075L28.3087 43.1691C27.3689 45.0098 26.9222 47.0574 27.0111 49.1168C27.1 51.1762 27.7216 53.1789 28.8166 54.9341C29.9117 56.6893 31.4438 58.1386 33.267 59.144C35.0902 60.1494 37.1439 60.6775 39.2324 60.6778H55.9455L48.4519 75.4912C47.5121 77.332 47.0653 79.3796 47.1542 81.439C47.2431 83.4984 47.8647 85.5011 48.9598 87.2563C50.0549 89.0115 51.5869 90.4608 53.4102 91.4662C55.2334 92.4716 57.287 92.9996 59.3755 93H79.6497C80.0924 92.997 80.5237 92.8614 80.8865 92.6112C81.2494 92.3609 81.5266 92.0077 81.6815 91.5984L90.7263 73.8309C91.6611 71.9744 92.094 69.9109 91.983 67.8406C91.872 65.7704 91.2208 63.7635 90.0927 62.0147ZM58.6109 74.8228C58.3192 74.3908 58.2129 73.8622 58.3153 73.353C58.4177 72.8438 58.7204 72.3954 59.157 72.1059L72.2654 63.7397C72.7202 63.4538 73.2715 63.3579 73.798 63.4731C74.3245 63.5884 74.783 63.9053 75.0727 64.3542C75.3625 64.8031 75.4596 65.3473 75.3428 65.8669C75.2261 66.3865 74.9049 66.8391 74.4501 67.125L61.3418 75.4912C61.1224 75.6317 60.8771 75.7281 60.6199 75.7749C60.3627 75.8217 60.0987 75.818 59.843 75.7639C59.5873 75.7098 59.3449 75.6064 59.1297 75.4598C58.9145 75.3131 58.7308 75.1259 58.589 74.9091L58.6109 74.8228ZM83.189 72.1706L63.5265 84.6338C63.307 84.7753 63.0614 84.8729 62.8037 84.9208C62.5461 84.9687 62.2814 84.966 62.0247 84.913C61.7681 84.8599 61.5246 84.7575 61.3081 84.6115C61.0915 84.4656 60.9063 84.279 60.7628 84.0623C60.6194 83.8457 60.5205 83.6033 60.472 83.349C60.4235 83.0947 60.4261 82.8335 60.4799 82.5802C60.5337 82.3269 60.6375 82.0865 60.7853 81.8728C60.9332 81.6591 61.1223 81.4763 61.3418 81.3347L81.0043 68.8716C81.2237 68.73 81.4693 68.6325 81.727 68.5845C81.9847 68.5366 82.2494 68.5393 82.506 68.5923C82.7626 68.6454 83.0062 68.7478 83.2227 68.8938C83.4392 69.0397 83.6245 69.2263 83.7679 69.443C83.9114 69.6596 84.0102 69.902 84.0588 70.1563C84.1073 70.4106 84.1046 70.6719 84.0508 70.9251C83.9971 71.1784 83.8933 71.4188 83.7454 71.6325C83.5975 71.8462 83.4085 72.029 83.189 72.1706Z" fill="#19CAC1"/>
</svg>
