<svg width="118" height="118" viewBox="0 0 118 118" fill="none" xmlns="http://www.w3.org/2000/svg">
<circle cx="59" cy="59" r="59" fill="#F5F9FC"/>
<path d="M68.2143 42.3281V24H40.9821C39.1712 24 37.7143 25.442 37.7143 27.2344V58.5H30.0893C29.4902 58.5 29 58.9852 29 59.5781V61.7344C29 62.3273 29.4902 62.8125 30.0893 62.8125H49.2743C49.6828 62.8125 50.0641 63.0416 50.2547 63.4055L52.9643 68.7691L60.6982 53.4463C61.0931 52.6512 62.2504 52.6512 62.6453 53.4463L67.3701 62.8125H76.9286C78.1268 62.8125 79.1071 63.7828 79.1071 64.9688C79.1071 66.1547 78.1268 67.125 76.9286 67.125H64.6877L61.6786 61.1684L53.9446 76.4912C53.5498 77.2863 52.3924 77.2863 51.9975 76.4912L47.2592 67.125H37.7143V89.7656C37.7143 91.558 39.1712 93 40.9821 93H86.7321C88.5431 93 90 91.558 90 89.7656V45.5625H71.4821C69.6848 45.5625 68.2143 44.107 68.2143 42.3281ZM89.0469 38.1504L75.7167 24.9434C75.104 24.3369 74.2734 24 73.402 24H72.5714V41.25H90V40.4279C90 39.5789 89.6596 38.7568 89.0469 38.1504Z" fill="#19CAC1"/>
</svg>
