<svg width="118" height="118" viewBox="0 0 118 118" fill="none" xmlns="http://www.w3.org/2000/svg">
<circle cx="59" cy="59" r="59" fill="#F5F9FC"/>
<path fill-rule="evenodd" clip-rule="evenodd" d="M58.4967 43.0388L45.8737 50.0957L38.7116 45.7539L38.698 45.7454V38.3897L51.8864 30.7623C51.9186 30.7436 51.9475 30.7215 51.9763 30.6995C53.2082 31.433 54.4563 32.1492 55.7042 32.8654C56.6373 33.401 57.5704 33.9365 58.4967 34.4792V43.0388ZM58.4967 83.857L52.029 87.4737L38.698 79.7614V72.185C38.698 72.0185 38.6963 71.8759 38.6912 71.7503L45.4951 67.8228L58.4967 75.3721V83.857ZM66.6182 87.4296L60.2864 83.7636V75.4213L73.2251 67.8975L80.2344 71.9438L80.231 79.7394L66.7795 87.5179L66.6182 87.4296ZM59.5138 92.3147L53.1208 88.4637L59.2743 84.7841C59.3117 84.7909 59.3525 84.7926 59.3915 84.7926C59.4764 84.7926 59.5579 84.7807 59.636 84.7586L65.6673 88.5146L65.6554 88.5859L59.5138 92.3147ZM58.8957 93.3777V100.992L52.1682 97.0386V89.5266C52.2599 89.547 52.3516 89.5504 52.4416 89.5368L58.8957 93.3777ZM60.125 93.3811L66.411 89.6149C66.4874 89.6166 66.5622 89.6064 66.6369 89.5843V97.154L60.125 101V93.3811ZM60.2864 43.0507V34.6167L66.9629 30.7334C67.0104 30.7827 67.0665 30.8251 67.1259 30.8591L80.0612 38.3404L80.0578 46.1869L80.0171 46.2107L72.8685 50.3419L60.2864 43.0507ZM59.5138 24.6529L53.1208 20.8018L59.4798 17L65.7199 20.885L59.5138 24.6529ZM58.8957 25.7158V33.3314L52.1682 29.3767V22.8576L52.2733 21.7761L58.8957 25.7158ZM60.125 25.7192L66.6369 21.8189V29.4922L60.125 33.3381V25.7192ZM87.7753 66.6461C87.7753 66.6885 87.7769 66.7293 87.782 66.7717L81.2057 70.4479L73.7871 66.1656V51.8701L80.9102 47.7542C80.9917 47.7066 81.0648 47.6472 81.1242 47.581C82.3623 48.3181 83.6165 49.0379 84.8708 49.7579C85.8442 50.3166 86.8177 50.8753 87.7837 51.4422L87.7753 66.6461ZM81.4621 72.5517C81.586 72.5619 81.7134 72.5449 81.8289 72.5042L88.1896 76.2873V83.9028L81.4621 79.9482V72.5517ZM88.8059 75.2244L82.4147 71.3733L88.772 67.5715L95.0138 71.4565L88.8059 75.2244ZM89.4172 76.2907L95.9307 72.3904V80.0637L89.4172 83.9096V76.2907ZM44.7055 66.2182L37.5094 70.3732L37.45 70.3409L31.1045 66.6665V51.4914L38.0646 47.4417L44.7055 51.4694V66.2182ZM30.3184 67.6021L30.3574 67.6004L36.5517 71.4565L30.3455 75.2244L23.9526 71.3733L30.264 67.6004L30.3184 67.6021ZM29.7275 76.2873V83.9028L23 79.9482V72.2851L29.7275 76.2873ZM30.9568 76.2907L37.4686 72.3904V80.0637L30.9568 83.9096V76.2907ZM37.4686 46.0901C37.4126 46.1954 37.377 46.3058 37.3651 46.4195L30.9568 50.2044V42.5854L37.4686 38.6851V46.0901ZM30.3455 41.5191L23.9526 37.668L30.3116 33.8662L36.5517 37.7512L30.3455 41.5191ZM29.7275 42.5821V50.1976L23 46.2429V38.5799L29.7275 42.5821ZM88.6327 41.5191L82.2415 37.668L88.5988 33.8662L94.8406 37.7512L88.6327 41.5191ZM88.0164 42.5821V50.1976L81.2889 46.2429V38.5799L88.0164 42.5821ZM89.244 42.5854L95.7575 38.6851V46.3584L89.244 50.2044V42.5854ZM58.6699 59.686V73.7777L46.232 66.4678V52.2861L58.6699 59.686ZM60.1981 59.6945L72.2572 52.4678V66.6682L60.1981 73.7913V59.6945ZM47.6125 51.2367L59.3847 44.1985L70.9311 51.3862L59.4391 58.3632L47.6125 51.2367Z" fill="#19CAC1"/>
</svg>
