<svg width="118" height="118" viewBox="0 0 118 118" fill="none" xmlns="http://www.w3.org/2000/svg">
<circle cx="59" cy="59" r="59" fill="#F5F9FC"/>
<path d="M98.1846 57.5455L104 63.4418L76.8754 91L62.4615 76.3636L68.2769 70.4673L76.8754 79.1655L98.1846 57.5455ZM52.0769 76.3636L64.5385 88.9091H23V80.5455C23 71.3036 37.8708 63.8182 56.2308 63.8182L64.0815 64.2782L52.0769 76.3636ZM56.2308 22C60.6374 22 64.8636 23.7623 67.9796 26.8993C71.0956 30.0363 72.8462 34.2909 72.8462 38.7273C72.8462 43.1636 71.0956 47.4183 67.9796 50.5552C64.8636 53.6922 60.6374 55.4545 56.2308 55.4545C51.8241 55.4545 47.5979 53.6922 44.4819 50.5552C41.3659 47.4183 39.6154 43.1636 39.6154 38.7273C39.6154 34.2909 41.3659 30.0363 44.4819 26.8993C47.5979 23.7623 51.8241 22 56.2308 22Z" fill="#19CAC1"/>
</svg>
